<svg width="960" height="640" viewBox="0 0 960 640" fill="none" xmlns="http://www.w3.org/2000/svg">
  <rect width="960" height="640" fill="#08080A"/>
  <rect x="108" y="96" width="744" height="352" rx="16" fill="#111113" stroke="#2A2A2A" stroke-width="4"/>
  <circle cx="277" cy="234" r="54" fill="#DD5454" fill-opacity="0.62"/>
  <circle cx="480" cy="260" r="74" fill="#F5F1EC" fill-opacity="0.82"/>
  <circle cx="683" cy="234" r="54" fill="#DD5454" fill-opacity="0.62"/>
  <path d="M245 356C318 322 390 322 463 356C536 390 609 390 682 356" stroke="#DD5454" stroke-width="8" stroke-linecap="round"/>
  <path d="M178 162C251 204 315 204 388 162C461 120 525 120 598 162C671 204 735 204 808 162" stroke="#F5F1EC" stroke-opacity="0.32" stroke-width="5" stroke-linecap="round"/>
  <path d="M161 512H799" stroke="#DD5454" stroke-width="8" stroke-linecap="round"/>
  <g fill="#F5F1EC" opacity="0.58">
    <circle cx="287" cy="518" r="14"/>
    <circle cx="382" cy="518" r="14"/>
    <circle cx="578" cy="518" r="14"/>
    <circle cx="673" cy="518" r="14"/>
  </g>
</svg>
