<svg width="960" height="640" viewBox="0 0 960 640" fill="none" xmlns="http://www.w3.org/2000/svg">
  <defs>
    <linearGradient id="fightBg" x1="480" y1="0" x2="480" y2="640" gradientUnits="userSpaceOnUse">
      <stop stop-color="#170E10"/>
      <stop offset="0.48" stop-color="#060607"/>
      <stop offset="1" stop-color="#030303"/>
    </linearGradient>
    <radialGradient id="fightGlow" cx="0" cy="0" r="1" gradientUnits="userSpaceOnUse" gradientTransform="translate(480 252) rotate(90) scale(260 500)">
      <stop stop-color="#D95858" stop-opacity="0.33"/>
      <stop offset="0.55" stop-color="#D95858" stop-opacity="0.1"/>
      <stop offset="1" stop-color="#D95858" stop-opacity="0"/>
    </radialGradient>
    <filter id="fightBlur" x="-30%" y="-30%" width="160%" height="160%">
      <feGaussianBlur stdDeviation="18"/>
    </filter>
  </defs>

  <rect width="960" height="640" fill="url(#fightBg)"/>
  <rect y="398" width="960" height="242" fill="#050506"/>
  <ellipse cx="480" cy="252" rx="402" ry="276" fill="url(#fightGlow)"/>
  <g filter="url(#fightBlur)" opacity="0.45">
    <path d="M260 96L392 390" stroke="#F5F1EC" stroke-width="32" stroke-linecap="round"/>
    <path d="M700 96L568 390" stroke="#F5F1EC" stroke-width="32" stroke-linecap="round"/>
  </g>

  <g>
    <rect x="112" y="98" width="736" height="344" rx="30" fill="#070707"/>
    <rect x="136" y="122" width="688" height="296" rx="16" stroke="#313131" stroke-width="8"/>
    <rect x="162" y="148" width="636" height="244" rx="8" fill="#130C0D"/>
    <path d="M210 300H750M210 338H750M210 376H750" stroke="#F5F1EC" stroke-opacity="0.25" stroke-width="5"/>
    <path d="M224 300L310 228H650L736 300" stroke="#D95858" stroke-width="6" stroke-linejoin="round"/>
    <path d="M300 344L392 284L454 344" stroke="#F5F1EC" stroke-opacity="0.32" stroke-width="7" stroke-linecap="round"/>
    <path d="M662 344L570 284L508 344" stroke="#F5F1EC" stroke-opacity="0.32" stroke-width="7" stroke-linecap="round"/>
    <path d="M423 226C426 205 440 190 459 190C482 190 497 210 492 235L480 296H430L423 226Z" fill="#090A0B"/>
    <path d="M536 226C533 205 519 190 500 190C477 190 462 210 467 235L479 296H529L536 226Z" fill="#090A0B"/>
    <circle cx="458" cy="184" r="17" fill="#F5F1EC" opacity="0.7"/>
    <circle cx="501" cy="184" r="17" fill="#F5F1EC" opacity="0.7"/>
    <rect x="388" y="164" width="184" height="58" rx="8" fill="#060606" stroke="#D95858" stroke-width="4"/>
    <text x="480" y="202" text-anchor="middle" font-family="Inter, Arial, sans-serif" font-size="28" font-weight="900" letter-spacing="5" fill="#F5F1EC">ROUND 3</text>
  </g>

  <path d="M130 460C210 430 300 430 380 460C450 486 510 486 580 460C660 430 750 430 830 460" stroke="#D95858" stroke-width="7" stroke-linecap="round"/>
  <g fill="#080809">
    <path d="M118 600C124 548 156 516 198 516C240 516 272 548 278 600H118Z"/>
    <path d="M342 600C348 548 380 516 422 516C464 516 496 548 502 600H342Z"/>
    <path d="M682 600C688 548 720 516 762 516C804 516 836 548 842 600H682Z"/>
  </g>
  <g fill="#F5F1EC" opacity="0.72">
    <circle cx="198" cy="504" r="17"/>
    <circle cx="422" cy="504" r="17"/>
    <circle cx="762" cy="504" r="17"/>
  </g>
  <g stroke="#2D3031" stroke-width="5" stroke-linecap="round">
    <path d="M84 562H304"/>
    <path d="M328 562H526"/>
    <path d="M656 562H876"/>
  </g>
</svg>
