<svg width="960" height="640" viewBox="0 0 960 640" fill="none" xmlns="http://www.w3.org/2000/svg">
  <rect width="960" height="640" fill="#08080A"/>
  <rect x="96" y="98" width="768" height="362" rx="16" fill="#111113" stroke="#2A2A2A" stroke-width="4"/>
  <circle cx="480" cy="277" r="146" fill="#6B1F1F" fill-opacity="0.52"/>
  <path d="M294 215H666M294 277H666M294 339H666" stroke="#F5F1EC" stroke-opacity="0.26" stroke-width="5"/>
  <path d="M356 194L455 284L385 362C349 340 331 311 331 275C331 238 340 211 356 194Z" fill="#DD5454"/>
  <path d="M604 194L505 284L575 362C611 340 629 311 629 275C629 238 620 211 604 194Z" fill="#DD5454"/>
  <rect x="421" y="236" width="118" height="88" rx="14" fill="#F5F1EC" fill-opacity="0.95"/>
  <path d="M156 510C268 476 371 476 480 510C589 544 692 544 804 510" stroke="#DD5454" stroke-width="8" stroke-linecap="round"/>
</svg>
