<svg width="960" height="640" viewBox="0 0 960 640" fill="none" xmlns="http://www.w3.org/2000/svg">
  <defs>
    <linearGradient id="gameBg" x1="480" y1="0" x2="480" y2="640" gradientUnits="userSpaceOnUse">
      <stop stop-color="#10131F"/>
      <stop offset="0.56" stop-color="#06070A"/>
      <stop offset="1" stop-color="#030405"/>
    </linearGradient>
    <radialGradient id="gameBlue" cx="0" cy="0" r="1" gradientUnits="userSpaceOnUse" gradientTransform="translate(342 228) rotate(80) scale(300 380)">
      <stop stop-color="#5677B7" stop-opacity="0.28"/>
      <stop offset="1" stop-color="#5677B7" stop-opacity="0"/>
    </radialGradient>
    <radialGradient id="gameRed" cx="0" cy="0" r="1" gradientUnits="userSpaceOnUse" gradientTransform="translate(648 348) rotate(90) scale(280 380)">
      <stop stop-color="#D95858" stop-opacity="0.24"/>
      <stop offset="1" stop-color="#D95858" stop-opacity="0"/>
    </radialGradient>
    <filter id="gameSoft" x="-30%" y="-30%" width="160%" height="160%">
      <feGaussianBlur stdDeviation="12"/>
    </filter>
  </defs>

  <rect width="960" height="640" fill="url(#gameBg)"/>
  <rect y="420" width="960" height="220" fill="#060706"/>
  <ellipse cx="342" cy="228" rx="330" ry="250" fill="url(#gameBlue)"/>
  <ellipse cx="648" cy="348" rx="340" ry="260" fill="url(#gameRed)"/>

  <g opacity="0.44">
    <path d="M84 392H876" stroke="#282F3A" stroke-width="8" stroke-linecap="round"/>
    <path d="M160 392V315H265V392M690 392V330H804V392" stroke="#1B1F26" stroke-width="8"/>
    <path d="M115 476H845" stroke="#111614" stroke-width="5"/>
  </g>

  <g>
    <rect x="126" y="106" width="708" height="334" rx="30" fill="#08090C"/>
    <rect x="148" y="128" width="664" height="290" rx="16" stroke="#353A43" stroke-width="8"/>
    <rect x="174" y="154" width="612" height="238" rx="8" fill="#111827"/>
    <rect x="174" y="154" width="306" height="238" rx="8" fill="#101927"/>
    <rect x="480" y="154" width="306" height="238" rx="8" fill="#1A1014"/>
    <path d="M480 154V392M174 273H786" stroke="#F5F1EC" stroke-opacity="0.13" stroke-width="3"/>
    <path d="M252 335H374L404 306L436 334H516L555 286L604 334H708" stroke="#D95858" stroke-width="7" stroke-linecap="round" stroke-linejoin="round"/>
    <circle cx="270" cy="318" r="14" fill="#F5F1EC" opacity="0.62"/>
    <rect x="590" y="214" width="104" height="48" rx="10" fill="#090A0C" stroke="#D95858" stroke-width="4"/>
    <path d="M618 238H666M642 214V262" stroke="#F5F1EC" stroke-width="7" stroke-linecap="round"/>
    <circle cx="704" cy="236" r="10" fill="#D95858"/>
    <circle cx="730" cy="258" r="10" fill="#F5F1EC" opacity="0.8"/>
    <text x="480" y="221" text-anchor="middle" font-family="Inter, Arial, sans-serif" font-size="44" font-weight="800" letter-spacing="6" fill="#F5F1EC">GAME NIGHT</text>
    <text x="480" y="358" text-anchor="middle" font-family="Inter, Arial, sans-serif" font-size="18" font-weight="700" letter-spacing="5" fill="#D95858">BACKYARD MODE</text>
  </g>

  <g filter="url(#gameSoft)" opacity="0.68">
    <circle cx="302" cy="520" r="42" fill="#5677B7"/>
    <circle cx="656" cy="520" r="42" fill="#D95858"/>
  </g>
  <g>
    <rect x="282" y="470" width="396" height="94" rx="47" fill="#121416" stroke="#E45E5E" stroke-width="4"/>
    <circle cx="354" cy="517" r="22" fill="#F5F1EC"/>
    <path d="M450 517H518M484 483V551" stroke="#F5F1EC" stroke-width="11" stroke-linecap="round"/>
    <circle cx="598" cy="504" r="13" fill="#D95858"/>
    <circle cx="636" cy="530" r="13" fill="#5978A8"/>
    <path d="M274 509C224 491 186 493 142 528" stroke="#343A42" stroke-width="5" stroke-linecap="round"/>
    <path d="M686 509C736 491 774 493 818 528" stroke="#343A42" stroke-width="5" stroke-linecap="round"/>
  </g>

  <g fill="#08090A">
    <path d="M82 598C88 548 119 517 159 517C199 517 230 548 236 598H82Z"/>
    <path d="M726 598C732 548 763 517 803 517C843 517 874 548 880 598H726Z"/>
  </g>
  <g fill="#F5F1EC" opacity="0.68">
    <circle cx="159" cy="506" r="17"/>
    <circle cx="803" cy="506" r="17"/>
  </g>
</svg>
