<svg width="960" height="640" viewBox="0 0 960 640" fill="none" xmlns="http://www.w3.org/2000/svg">
  <rect width="960" height="640" fill="#08080A"/>
  <rect x="105" y="116" width="750" height="318" rx="14" fill="#F5F1EC"/>
  <rect x="132" y="142" width="696" height="266" rx="8" fill="#1A1A1A"/>
  <circle cx="480" cy="275" r="84" fill="#DD5454" fill-opacity="0.38"/>
  <path d="M437 221L540 276L437 331V221Z" fill="#F5F1EC"/>
  <path d="M112 486C188 443 286 443 362 486C438 529 536 529 612 486C688 443 786 443 862 486" stroke="#DD5454" stroke-width="8" stroke-linecap="round"/>
  <g fill="#F5F1EC" opacity="0.62">
    <circle cx="191" cy="500" r="16"/>
    <circle cx="276" cy="509" r="14"/>
    <circle cx="358" cy="497" r="17"/>
    <circle cx="610" cy="504" r="15"/>
    <circle cx="696" cy="492" r="18"/>
    <circle cx="780" cy="508" r="14"/>
  </g>
  <rect x="105" y="448" width="750" height="4" fill="#DD5454" fill-opacity="0.45"/>
</svg>
