<svg width="960" height="640" viewBox="0 0 960 640" fill="none" xmlns="http://www.w3.org/2000/svg">
  <defs>
    <linearGradient id="movieSky" x1="480" y1="0" x2="480" y2="640" gradientUnits="userSpaceOnUse">
      <stop stop-color="#101722"/>
      <stop offset="0.48" stop-color="#07080B"/>
      <stop offset="1" stop-color="#030405"/>
    </linearGradient>
    <linearGradient id="movieLawn" x1="480" y1="406" x2="480" y2="640" gradientUnits="userSpaceOnUse">
      <stop stop-color="#142217"/>
      <stop offset="1" stop-color="#050706"/>
    </linearGradient>
    <radialGradient id="movieGlow" cx="0" cy="0" r="1" gradientUnits="userSpaceOnUse" gradientTransform="translate(480 260) rotate(90) scale(255 510)">
      <stop stop-color="#F5F1EC" stop-opacity="0.34"/>
      <stop offset="0.52" stop-color="#D95858" stop-opacity="0.12"/>
      <stop offset="1" stop-color="#D95858" stop-opacity="0"/>
    </radialGradient>
    <filter id="movieSoft" x="-30%" y="-30%" width="160%" height="160%">
      <feGaussianBlur stdDeviation="14"/>
    </filter>
  </defs>

  <rect width="960" height="640" fill="url(#movieSky)"/>
  <rect y="405" width="960" height="235" fill="url(#movieLawn)"/>
  <ellipse cx="480" cy="298" rx="392" ry="240" fill="url(#movieGlow)"/>

  <g opacity="0.55">
    <path d="M0 387H960" stroke="#4D5149" stroke-width="2"/>
    <path d="M86 388V338H144V388M154 388V316H250V388M776 388V328H842V388" stroke="#1D211D" stroke-width="8"/>
    <path d="M46 385H306M688 385H912" stroke="#252A25" stroke-width="10" stroke-linecap="round"/>
  </g>

  <g opacity="0.85">
    <path d="M74 112C198 80 324 80 448 112C570 143 696 143 820 112" stroke="#707884" stroke-width="3" stroke-linecap="round"/>
    <g filter="url(#movieSoft)">
      <circle cx="130" cy="101" r="9" fill="#F4EFE4" opacity="0.7"/>
      <circle cx="252" cy="91" r="9" fill="#D95858" opacity="0.7"/>
      <circle cx="374" cy="101" r="9" fill="#F4EFE4" opacity="0.7"/>
      <circle cx="586" cy="123" r="9" fill="#D95858" opacity="0.7"/>
      <circle cx="708" cy="123" r="9" fill="#F4EFE4" opacity="0.7"/>
      <circle cx="818" cy="111" r="9" fill="#5978A8" opacity="0.75"/>
    </g>
    <circle cx="130" cy="101" r="5" fill="#F4EFE4"/>
    <circle cx="252" cy="91" r="5" fill="#D95858"/>
    <circle cx="374" cy="101" r="5" fill="#F4EFE4"/>
    <circle cx="586" cy="123" r="5" fill="#D95858"/>
    <circle cx="708" cy="123" r="5" fill="#F4EFE4"/>
    <circle cx="818" cy="111" r="5" fill="#5978A8"/>
  </g>

  <g>
    <rect x="134" y="126" width="692" height="310" rx="34" fill="#050506"/>
    <rect x="151" y="143" width="658" height="276" rx="20" stroke="#F5F1EC" stroke-opacity="0.9" stroke-width="24"/>
    <rect x="177" y="166" width="606" height="230" rx="8" fill="#ECE5D9"/>
    <rect x="190" y="180" width="580" height="204" rx="6" fill="#141517"/>
    <path d="M190 323C256 278 315 286 371 324C431 365 502 365 562 324C623 282 694 277 770 318V384H190V323Z" fill="#2C4435"/>
    <circle cx="646" cy="226" r="34" fill="#D95858" opacity="0.9"/>
    <path d="M232 318L328 232L407 304L454 260L581 384H232V318Z" fill="#EEF0EA" opacity="0.22"/>
    <path d="M177 404H783" stroke="#D95858" stroke-width="4" stroke-opacity="0.58"/>
  </g>

  <path d="M715 424L904 510L690 520L552 428Z" fill="#F5F1EC" opacity="0.08"/>
  <rect x="760" y="500" width="62" height="30" rx="5" fill="#17191B" stroke="#D95858" stroke-opacity="0.65" stroke-width="3"/>
  <circle cx="793" cy="515" r="7" fill="#F5F1EC" opacity="0.7"/>

  <g fill="#090A0B">
    <path d="M196 536C198 493 224 466 257 466C291 466 316 493 318 536H196Z"/>
    <path d="M394 546C396 501 424 472 460 472C496 472 524 501 526 546H394Z"/>
    <path d="M642 536C644 493 671 466 705 466C739 466 766 493 768 536H642Z"/>
  </g>
  <g fill="#F5F1EC" opacity="0.78">
    <circle cx="257" cy="457" r="18"/>
    <circle cx="460" cy="462" r="19"/>
    <circle cx="705" cy="457" r="18"/>
  </g>
  <g stroke="#C8C2B8" stroke-opacity="0.32" stroke-width="4" stroke-linecap="round">
    <path d="M150 574L245 506L337 574"/>
    <path d="M350 586L458 514L566 586"/>
    <path d="M620 574L706 506L804 574"/>
  </g>
</svg>
