<svg width="960" height="640" viewBox="0 0 960 640" fill="none" xmlns="http://www.w3.org/2000/svg">
  <defs>
    <linearGradient id="sportsSky" x1="480" y1="0" x2="480" y2="640" gradientUnits="userSpaceOnUse">
      <stop stop-color="#0B1420"/>
      <stop offset="0.5" stop-color="#050709"/>
      <stop offset="1" stop-color="#030404"/>
    </linearGradient>
    <linearGradient id="sportsGrass" x1="480" y1="382" x2="480" y2="640" gradientUnits="userSpaceOnUse">
      <stop stop-color="#14301D"/>
      <stop offset="1" stop-color="#050806"/>
    </linearGradient>
    <radialGradient id="sportsGlow" cx="0" cy="0" r="1" gradientUnits="userSpaceOnUse" gradientTransform="translate(480 260) rotate(90) scale(260 520)">
      <stop stop-color="#F5F1EC" stop-opacity="0.28"/>
      <stop offset="0.55" stop-color="#D95858" stop-opacity="0.12"/>
      <stop offset="1" stop-color="#D95858" stop-opacity="0"/>
    </radialGradient>
  </defs>

  <rect width="960" height="640" fill="url(#sportsSky)"/>
  <rect y="382" width="960" height="258" fill="url(#sportsGrass)"/>
  <ellipse cx="480" cy="256" rx="400" ry="260" fill="url(#sportsGlow)"/>

  <g opacity="0.52">
    <path d="M60 390H900" stroke="#3B4A3B" stroke-width="5" stroke-linecap="round"/>
    <path d="M82 470H878M136 520H824M196 566H764" stroke="#D8DCD3" stroke-opacity="0.12" stroke-width="3"/>
    <path d="M176 382V318H310V382M740 382V330H850V382" stroke="#182119" stroke-width="8"/>
  </g>

  <g>
    <rect x="112" y="102" width="736" height="334" rx="30" fill="#070809"/>
    <rect x="134" y="124" width="692" height="290" rx="16" stroke="#2F3732" stroke-width="8"/>
    <rect x="160" y="150" width="640" height="238" rx="8" fill="#12321D"/>
    <path d="M160 269H800M480 150V388" stroke="#F5F1EC" stroke-opacity="0.38" stroke-width="4"/>
    <circle cx="480" cy="269" r="70" stroke="#F5F1EC" stroke-opacity="0.27" stroke-width="5"/>
    <path d="M226 150V388M734 150V388M288 150V388M672 150V388" stroke="#F5F1EC" stroke-opacity="0.11" stroke-width="3"/>
    <rect x="336" y="185" width="288" height="76" rx="10" fill="#050607" stroke="#D95858" stroke-width="4"/>
    <text x="480" y="232" text-anchor="middle" font-family="Inter, Arial, sans-serif" font-size="32" font-weight="800" letter-spacing="6" fill="#F5F1EC">BIG GAME</text>
    <rect x="358" y="282" width="92" height="50" rx="6" fill="#0A0D0B" stroke="#F5F1EC" stroke-opacity="0.3"/>
    <rect x="510" y="282" width="92" height="50" rx="6" fill="#0A0D0B" stroke="#F5F1EC" stroke-opacity="0.3"/>
    <text x="404" y="317" text-anchor="middle" font-family="Inter, Arial, sans-serif" font-size="30" font-weight="900" fill="#D95858">24</text>
    <text x="556" y="317" text-anchor="middle" font-family="Inter, Arial, sans-serif" font-size="30" font-weight="900" fill="#5978A8">21</text>
  </g>

  <g>
    <path d="M190 450H770" stroke="#D95858" stroke-width="7" stroke-linecap="round"/>
    <g fill="#F5F1EC" opacity="0.76">
      <circle cx="248" cy="448" r="13"/>
      <circle cx="318" cy="448" r="13"/>
      <circle cx="388" cy="448" r="13"/>
      <circle cx="572" cy="448" r="13"/>
      <circle cx="642" cy="448" r="13"/>
      <circle cx="712" cy="448" r="13"/>
    </g>
    <path d="M120 516H240L222 586H138L120 516Z" fill="#101315" stroke="#5978A8" stroke-width="4"/>
    <path d="M130 538H230" stroke="#F5F1EC" stroke-opacity="0.35" stroke-width="4"/>
    <path d="M716 516H846L822 588H740L716 516Z" fill="#101315" stroke="#D95858" stroke-width="4"/>
    <path d="M238 570C292 528 350 526 410 568" stroke="#F5F1EC" stroke-opacity="0.2" stroke-width="6" stroke-linecap="round"/>
    <path d="M552 568C612 526 672 528 726 570" stroke="#F5F1EC" stroke-opacity="0.2" stroke-width="6" stroke-linecap="round"/>
  </g>

  <g opacity="0.9">
    <path d="M84 96C178 74 272 74 366 96" stroke="#6C7482" stroke-width="3" stroke-linecap="round"/>
    <path d="M594 96C688 74 782 74 876 96" stroke="#6C7482" stroke-width="3" stroke-linecap="round"/>
    <circle cx="136" cy="88" r="5" fill="#F5F1EC"/>
    <circle cx="230" cy="82" r="5" fill="#D95858"/>
    <circle cx="324" cy="92" r="5" fill="#5978A8"/>
    <circle cx="646" cy="88" r="5" fill="#F5F1EC"/>
    <circle cx="740" cy="82" r="5" fill="#D95858"/>
    <circle cx="834" cy="92" r="5" fill="#5978A8"/>
  </g>
</svg>
